STARTFONT 2.1
FONT -Adobe-Utopia-Regular-R-Normal--17-120-100-100-P-91-ISO8859-2
SIZE 12 100 100
FONTBOUNDINGBOX 22 19 -3 -4
STARTPROPERTIES 29
FOUNDRY "Adobe"
FAMILY_NAME "Utopia"
WEIGHT_NAME "Regular"
SLANT "R"
SETWIDTH_NAME "Normal"
ADD_STYLE_NAME ""
PIXEL_SIZE 17
POINT_SIZE 120
RESOLUTION_X 100
RESOLUTION_Y 100
SPACING "P"
AVERAGE_WIDTH 91
CHARSET_REGISTRY "ISO8859"
CHARSET_ENCODING "2"
CAP_HEIGHT 12
X_HEIGHT 8
RELATIVE_SETWIDTH 50
RELATIVE_WEIGHT 50
WEIGHT 136
FACE_NAME "Utopia Regular"
COPYRIGHT "Copyright (c) 1989, 1991 Adobe Systems Incorporated.  All Rights Reserved., Copyright 1996 Cub Soft"
NOTICE "Utopia is a registered trademark of Adobe Systems Incorporated."
DESTINATION 0
FONT_ASCENT 15
FONT_DESCENT 4
DEFAULT_CHAR 32
_ADOBE_PSFONT "Utopia-Regular"
_ADOBE_XFONT "-Adobe-Utopia-Regular-R-Normal--17-120-100-100-P-91-ISO8859-2"
_DEC_DEVICE_FONTNAMES "PS=Utopia-Regular"
ENDPROPERTIES
CHARS 191
STARTCHAR space
ENCODING 32
SWIDTH 225 0
DWIDTH 4 0
BBX 0 0 0 0
BITMAP
ENDCHAR
STARTCHAR exclam
ENCODING 33
SWIDTH 242 0
DWIDTH 4 0
BBX 2 12 1 0
BITMAP
c0
c0
c0
c0
c0
80
80
80
00
00
c0
c0
ENDCHAR
STARTCHAR quotedbl
ENCODING 34
SWIDTH 458 0
DWIDTH 8 0
BBX 4 5 2 7
BITMAP
90
90
90
90
90
ENDCHAR
STARTCHAR numbersign
ENCODING 35
SWIDTH 530 0
DWIDTH 9 0
BBX 8 11 0 0
BITMAP
12
12
12
7f
24
24
fe
28
48
48
48
ENDCHAR
STARTCHAR dollar
ENCODING 36
SWIDTH 530 0
DWIDTH 9 0
BBX 7 14 1 -2
BITMAP
10
38
54
d4
d0
70
38
1c
16
d6
d4
78
10
10
ENDCHAR
STARTCHAR percent
ENCODING 37
SWIDTH 838 0
DWIDTH 14 0
BBX 12 12 1 0
BITMAP
0040
7f80
8880
8900
8900
8a00
74e0
0510
0910
0910
1110
20e0
ENDCHAR
STARTCHAR ampersand
ENCODING 38
SWIDTH 706 0
DWIDTH 12 0
BBX 10 11 1 0
BITMAP
1800
2600
6600
6400
38c0
38c0
cc80
c680
c300
6380
3c40
ENDCHAR
STARTCHAR apostrophe
ENCODING 39
SWIDTH 278 0
DWIDTH 5 0
BBX 2 4 1 8
BITMAP
c0
40
40
80
ENDCHAR
STARTCHAR parenleft
ENCODING 40
SWIDTH 350 0
DWIDTH 6 0
BBX 3 14 2 -2
BITMAP
20
40
40
80
80
80
80
80
80
80
80
40
40
20
ENDCHAR
STARTCHAR parenright
ENCODING 41
SWIDTH 350 0
DWIDTH 6 0
BBX 3 14 1 -2
BITMAP
80
40
40
20
20
20
20
20
20
20
20
40
c0
80
ENDCHAR
STARTCHAR asterisk
ENCODING 42
SWIDTH 412 0
DWIDTH 7 0
BBX 5 6 1 6
BITMAP
20
a8
70
70
a8
20
ENDCHAR
STARTCHAR plus
ENCODING 43
SWIDTH 570 0
DWIDTH 9 0
BBX 7 8 1 0
BITMAP
10
10
10
fe
10
10
10
10
ENDCHAR
STARTCHAR comma
ENCODING 44
SWIDTH 265 0
DWIDTH 4 0
BBX 3 5 1 -3
BITMAP
40
60
60
40
80
ENDCHAR
STARTCHAR minus
ENCODING 45
SWIDTH 570 0
DWIDTH 9 0
BBX 8 1 1 4
BITMAP
ff
ENDCHAR
STARTCHAR period
ENCODING 46
SWIDTH 265 0
DWIDTH 4 0
BBX 2 2 1 0
BITMAP
c0
c0
ENDCHAR
STARTCHAR slash
ENCODING 47
SWIDTH 460 0
DWIDTH 8 0
BBX 5 12 1 0
BITMAP
08
10
10
10
30
20
20
60
40
40
40
80
ENDCHAR
STARTCHAR zero
ENCODING 48
SWIDTH 530 0
DWIDTH 9 0
BBX 7 11 1 0
BITMAP
38
6c
44
c6
c6
c6
c6
c6
44
6c
38
ENDCHAR
STARTCHAR one
ENCODING 49
SWIDTH 530 0
DWIDTH 9 0
BBX 6 11 2 0
BITMAP
30
f0
30
30
30
30
30
30
30
30
fc
ENDCHAR
STARTCHAR two
ENCODING 50
SWIDTH 530 0
DWIDTH 9 0
BBX 7 11 1 0
BITMAP
38
44
c6
06
06
0c
18
10
60
42
fe
ENDCHAR
STARTCHAR three
ENCODING 51
SWIDTH 530 0
DWIDTH 9 0
BBX 8 11 0 0
BITMAP
3c
63
43
06
38
06
03
03
c3
66
3c
ENDCHAR
STARTCHAR four
ENCODING 52
SWIDTH 530 0
DWIDTH 9 0
BBX 9 11 0 0
BITMAP
0600
0600
0e00
1600
2600
2600
4600
ff80
0600
0600
0f00
ENDCHAR
STARTCHAR five
ENCODING 53
SWIDTH 530 0
DWIDTH 9 0
BBX 8 11 0 0
BITMAP
7e
40
40
40
7c
46
03
03
83
c6
3c
ENDCHAR
STARTCHAR six
ENCODING 54
SWIDTH 530 0
DWIDTH 9 0
BBX 7 11 1 0
BITMAP
1c
24
46
40
d8
e4
c6
c6
46
64
38
ENDCHAR
STARTCHAR seven
ENCODING 55
SWIDTH 530 0
DWIDTH 9 0
BBX 8 11 1 0
BITMAP
ff
82
02
04
08
08
10
10
30
30
30
ENDCHAR
STARTCHAR eight
ENCODING 56
SWIDTH 530 0
DWIDTH 9 0
BBX 7 11 1 0
BITMAP
38
44
c6
c6
44
38
44
c6
c6
44
38
ENDCHAR
STARTCHAR nine
ENCODING 57
SWIDTH 530 0
DWIDTH 9 0
BBX 8 11 0 0
BITMAP
3c
46
c2
c3
c7
3b
03
03
42
46
38
ENDCHAR
STARTCHAR colon
ENCODING 58
SWIDTH 265 0
DWIDTH 4 0
BBX 2 8 1 0
BITMAP
c0
c0
00
00
00
00
c0
c0
ENDCHAR
STARTCHAR semicolon
ENCODING 59
SWIDTH 265 0
DWIDTH 4 0
BBX 3 10 1 -2
BITMAP
40
c0
00
00
00
00
60
60
40
80
ENDCHAR
STARTCHAR less
ENCODING 60
SWIDTH 570 0
DWIDTH 9 0
BBX 8 9 1 -1
BITMAP
01
07
1c
70
c0
e0
38
06
01
ENDCHAR
STARTCHAR equal
ENCODING 61
SWIDTH 570 0
DWIDTH 9 0
BBX 8 4 1 2
BITMAP
ff
00
00
ff
ENDCHAR
STARTCHAR greater
ENCODING 62
SWIDTH 570 0
DWIDTH 9 0
BBX 8 9 1 -1
BITMAP
80
e0
38
0e
03
07
1c
60
80
ENDCHAR
STARTCHAR question
ENCODING 63
SWIDTH 389 0
DWIDTH 6 0
BBX 6 12 0 0
BITMAP
38
4c
cc
08
18
30
60
60
38
00
10
10
ENDCHAR
STARTCHAR at
ENCODING 64
SWIDTH 793 0
DWIDTH 13 0
BBX 13 12 0 0
BITMAP
07c0
1820
3010
63c8
44c8
ccc8
d988
da90
4ce0
6000
3040
0f80
ENDCHAR
STARTCHAR A
ENCODING 65
SWIDTH 635 0
DWIDTH 11 0
BBX 11 12 0 0
BITMAP
0400
0e00
0e00
0a00
1300
1100
1f00
2180
2180
2080
40c0
f1e0
ENDCHAR
STARTCHAR B
ENCODING 66
SWIDTH 646 0
DWIDTH 11 0
BBX 9 12 1 0
BITMAP
fe00
6300
6180
6180
6300
7c00
6300
6180
6180
6180
6300
fe00
ENDCHAR
STARTCHAR C
ENCODING 67
SWIDTH 684 0
DWIDTH 11 0
BBX 10 12 1 0
BITMAP
0f80
30c0
6040
4000
c000
c000
c000
c000
c040
6040
30c0
0f00
ENDCHAR
STARTCHAR D
ENCODING 68
SWIDTH 779 0
DWIDTH 13 0
BBX 12 12 0 0
BITMAP
7f00
30c0
3060
3030
3030
3030
3030
3030
3020
3060
30c0
ff00
ENDCHAR
STARTCHAR E
ENCODING 69
SWIDTH 606 0
DWIDTH 10 0
BBX 9 12 1 0
BITMAP
ff00
6300
6100
6000
6200
6200
7e00
6200
6000
6080
6100
ff00
ENDCHAR
STARTCHAR F
ENCODING 70
SWIDTH 580 0
DWIDTH 10 0
BBX 8 12 1 0
BITMAP
ff
61
61
60
60
62
7e
62
60
60
60
f0
ENDCHAR
STARTCHAR G
ENCODING 71
SWIDTH 734 0
DWIDTH 12 0
BBX 11 12 1 0
BITMAP
0f80
30c0
6040
4000
c000
c000
c3e0
c0c0
40c0
60c0
30c0
0f00
ENDCHAR
STARTCHAR H
ENCODING 72
SWIDTH 798 0
DWIDTH 13 0
BBX 11 12 1 0
BITMAP
f1e0
60c0
60c0
60c0
60c0
60c0
7fc0
60c0
60c0
60c0
60c0
f1e0
ENDCHAR
STARTCHAR I
ENCODING 73
SWIDTH 349 0
DWIDTH 6 0
BBX 4 12 1 0
BITMAP
f0
60
60
60
60
60
60
60
60
60
60
f0
ENDCHAR
STARTCHAR J
ENCODING 74
SWIDTH 350 0
DWIDTH 6 0
BBX 5 14 0 -2
BITMAP
78
30
30
30
30
30
30
30
30
30
30
30
20
c0
ENDCHAR
STARTCHAR K
ENCODING 75
SWIDTH 658 0
DWIDTH 11 0
BBX 10 12 1 0
BITMAP
f3c0
6100
6200
6400
6800
7800
7800
6c00
6600
6300
6180
f0c0
ENDCHAR
STARTCHAR L
ENCODING 76
SWIDTH 568 0
DWIDTH 9 0
BBX 9 12 1 0
BITMAP
f000
6000
6000
6000
6000
6000
6000
6000
6000
6080
6100
ff00
ENDCHAR
STARTCHAR M
ENCODING 77
SWIDTH 944 0
DWIDTH 16 0
BBX 14 12 1 0
BITMAP
e01c
7038
7038
5858
5858
4858
4c98
4c98
4718
4718
4218
f23c
ENDCHAR
STARTCHAR N
ENCODING 78
SWIDTH 780 0
DWIDTH 13 0
BBX 11 12 1 0
BITMAP
e1e0
7040
7040
5840
4c40
4c40
4640
4340
4340
41c0
40c0
f0c0
ENDCHAR
STARTCHAR O
ENCODING 79
SWIDTH 762 0
DWIDTH 13 0
BBX 11 12 1 0
BITMAP
0e00
3180
60c0
4040
c060
c060
c060
c060
4040
60c0
3180
0e00
ENDCHAR
STARTCHAR P
ENCODING 80
SWIDTH 600 0
DWIDTH 10 0
BBX 9 12 1 0
BITMAP
fe00
6300
6180
6180
6180
6300
7c00
6000
6000
6000
6000
f800
ENDCHAR
STARTCHAR Q
ENCODING 81
SWIDTH 762 0
DWIDTH 13 0
BBX 11 15 1 -3
BITMAP
0e00
3180
60c0
4040
c060
c060
c060
c060
4040
60c0
3180
0f00
0600
0300
01c0
ENDCHAR
STARTCHAR R
ENCODING 82
SWIDTH 644 0
DWIDTH 11 0
BBX 9 12 1 0
BITMAP
fc00
6600
6300
6300
6300
6600
7800
6600
6200
6300
6300
f180
ENDCHAR
STARTCHAR S
ENCODING 83
SWIDTH 541 0
DWIDTH 9 0
BBX 8 12 1 0
BITMAP
3c
46
c2
c0
e0
78
1e
03
83
83
c6
3c
ENDCHAR
STARTCHAR T
ENCODING 84
SWIDTH 621 0
DWIDTH 10 0
BBX 10 12 0 0
BITMAP
ffc0
8c40
8c40
0c00
0c00
0c00
0c00
0c00
0c00
0c00
0c00
3f00
ENDCHAR
STARTCHAR U
ENCODING 85
SWIDTH 791 0
DWIDTH 13 0
BBX 11 12 1 0
BITMAP
f1e0
60c0
60c0
60c0
60c0
60c0
60c0
60c0
60c0
2080
3180
0e00
ENDCHAR
STARTCHAR V
ENCODING 86
SWIDTH 634 0
DWIDTH 11 0
BBX 12 12 -1 0
BITMAP
f0f0
6060
3040
3040
1080
1880
1880
0d00
0d00
0e00
0600
0600
ENDCHAR
STARTCHAR W
ENCODING 87
SWIDTH 940 0
DWIDTH 16 0
BBX 16 12 0 0
BITMAP
f00f
6082
2186
21c4
3144
3244
124c
1228
1a28
1c28
0c38
0c10
ENDCHAR
STARTCHAR X
ENCODING 88
SWIDTH 624 0
DWIDTH 10 0
BBX 11 12 0 0
BITMAP
f1e0
6080
3100
1b00
1a00
0c00
0e00
1b00
1100
3180
60c0
f1e0
ENDCHAR
STARTCHAR Y
ENCODING 89
SWIDTH 588 0
DWIDTH 10 0
BBX 10 12 0 0
BITMAP
f1c0
6080
2100
3100
1a00
1a00
0c00
0c00
0c00
0c00
0c00
1f00
ENDCHAR
STARTCHAR Z
ENCODING 90
SWIDTH 610 0
DWIDTH 10 0
BBX 10 12 0 0
BITMAP
7fc0
41c0
4180
0300
0600
0e00
0c00
1800
3000
3040
6040
ffc0
ENDCHAR
STARTCHAR bracketleft
ENCODING 91
SWIDTH 330 0
DWIDTH 5 0
BBX 3 14 2 -2
BITMAP
e0
80
80
80
80
80
80
80
80
80
80
80
80
e0
ENDCHAR
STARTCHAR backslash
ENCODING 92
SWIDTH 460 0
DWIDTH 8 0
BBX 5 12 1 0
BITMAP
80
40
40
40
60
20
20
30
10
10
10
08
ENDCHAR
STARTCHAR bracketright
ENCODING 93
SWIDTH 330 0
DWIDTH 5 0
BBX 3 14 0 -2
BITMAP
e0
20
20
20
20
20
20
20
20
20
20
20
20
e0
ENDCHAR
STARTCHAR asciicircum
ENCODING 94
SWIDTH 570 0
DWIDTH 9 0
BBX 8 7 1 4
BITMAP
18
18
24
24
42
42
c3
ENDCHAR
STARTCHAR underscore
ENCODING 95
SWIDTH 500 0
DWIDTH 8 0
BBX 8 1 0 -2
BITMAP
ff
ENDCHAR
STARTCHAR grave
ENCODING 96
SWIDTH 400 0
DWIDTH 7 0
BBX 4 3 1 9
BITMAP
c0
60
10
ENDCHAR
STARTCHAR a
ENCODING 97
SWIDTH 523 0
DWIDTH 9 0
BBX 7 8 1 0
BITMAP
38
cc
8c
3c
cc
cc
cc
7e
ENDCHAR
STARTCHAR b
ENCODING 98
SWIDTH 598 0
DWIDTH 10 0
BBX 9 12 0 0
BITMAP
6000
e000
6000
6000
6e00
7300
6180
6180
6180
6180
6300
5e00
ENDCHAR
STARTCHAR c
ENCODING 99
SWIDTH 496 0
DWIDTH 8 0
BBX 7 8 1 0
BITMAP
3c
66
c2
c0
c0
c0
62
3c
ENDCHAR
STARTCHAR d
ENCODING 100
SWIDTH 598 0
DWIDTH 10 0
BBX 9 12 1 0
BITMAP
0300
0700
0300
0300
1f00
6300
4300
c300
c300
c300
6700
3b80
ENDCHAR
STARTCHAR e
ENCODING 101
SWIDTH 514 0
DWIDTH 9 0
BBX 7 8 1 0
BITMAP
38
44
c6
fe
c0
c2
64
38
ENDCHAR
STARTCHAR f
ENCODING 102
SWIDTH 319 0
DWIDTH 5 0
BBX 6 12 1 0
BITMAP
18
2c
60
60
f8
60
60
60
60
60
60
f0
ENDCHAR
STARTCHAR g
ENCODING 103
SWIDTH 520 0
DWIDTH 9 0
BBX 9 12 0 -4
BITMAP
1d80
2200
6300
6300
3c00
2000
6000
3f00
4180
c180
4300
3c00
ENDCHAR
STARTCHAR h
ENCODING 104
SWIDTH 607 0
DWIDTH 10 0
BBX 10 12 0 0
BITMAP
6000
e000
6000
6000
6f00
7180
6180
6180
6180
6180
6180
f3c0
ENDCHAR
STARTCHAR i
ENCODING 105
SWIDTH 291 0
DWIDTH 5 0
BBX 4 12 1 0
BITMAP
60
60
00
00
60
e0
60
60
60
60
60
f0
ENDCHAR
STARTCHAR j
ENCODING 106
SWIDTH 280 0
DWIDTH 5 0
BBX 4 16 0 -4
BITMAP
30
30
00
00
30
70
30
30
30
30
30
30
30
20
60
80
ENDCHAR
STARTCHAR k
ENCODING 107
SWIDTH 524 0
DWIDTH 9 0
BBX 9 12 0 0
BITMAP
6000
e000
6000
6000
6300
6400
6800
7800
7800
6c00
6700
f180
ENDCHAR
STARTCHAR l
ENCODING 108
SWIDTH 279 0
DWIDTH 5 0
BBX 4 12 0 0
BITMAP
60
e0
60
60
60
60
60
60
60
60
60
f0
ENDCHAR
STARTCHAR m
ENCODING 109
SWIDTH 923 0
DWIDTH 15 0
BBX 14 8 1 0
BITMAP
6e70
f398
6318
6318
6318
6318
6318
f7bc
ENDCHAR
STARTCHAR n
ENCODING 110
SWIDTH 619 0
DWIDTH 10 0
BBX 9 8 1 0
BITMAP
6e00
f300
6300
6300
6300
6300
6300
f780
ENDCHAR
STARTCHAR o
ENCODING 111
SWIDTH 577 0
DWIDTH 10 0
BBX 8 8 1 0
BITMAP
3c
66
c3
c3
c3
c3
66
3c
ENDCHAR
STARTCHAR p
ENCODING 112
SWIDTH 608 0
DWIDTH 10 0
BBX 9 12 0 -4
BITMAP
6e00
f300
6180
6180
6180
6180
6300
7e00
6000
6000
6000
f000
ENDCHAR
STARTCHAR q
ENCODING 113
SWIDTH 591 0
DWIDTH 10 0
BBX 9 12 1 -4
BITMAP
1d00
6300
4300
c300
c300
c300
6700
3b00
0300
0300
0300
0780
ENDCHAR
STARTCHAR r
ENCODING 114
SWIDTH 389 0
DWIDTH 6 0
BBX 6 8 1 0
BITMAP
6c
fc
60
60
60
60
60
f0
ENDCHAR
STARTCHAR s
ENCODING 115
SWIDTH 436 0
DWIDTH 7 0
BBX 6 8 1 0
BITMAP
30
c8
c0
70
18
8c
c8
70
ENDCHAR
STARTCHAR t
ENCODING 116
SWIDTH 344 0
DWIDTH 6 0
BBX 5 10 0 0
BITMAP
20
20
f8
60
60
60
60
60
60
38
ENDCHAR
STARTCHAR u
ENCODING 117
SWIDTH 606 0
DWIDTH 10 0
BBX 10 8 0 0
BITMAP
6180
e380
6180
6180
6180
6180
6380
3dc0
ENDCHAR
STARTCHAR v
ENCODING 118
SWIDTH 504 0
DWIDTH 8 0
BBX 9 8 0 0
BITMAP
f380
6100
2200
3200
1400
1c00
1c00
0800
ENDCHAR
STARTCHAR w
ENCODING 119
SWIDTH 768 0
DWIDTH 13 0
BBX 13 8 0 0
BITMAP
f338
6310
6390
35a0
35a0
34e0
18c0
18c0
ENDCHAR
STARTCHAR x
ENCODING 120
SWIDTH 486 0
DWIDTH 8 0
BBX 8 8 0 0
BITMAP
e7
42
24
38
18
2c
46
ef
ENDCHAR
STARTCHAR y
ENCODING 121
SWIDTH 506 0
DWIDTH 8 0
BBX 9 12 0 -4
BITMAP
f380
6100
2100
3200
3200
1a00
1c00
0c00
0800
0800
5000
7000
ENDCHAR
STARTCHAR z
ENCODING 122
SWIDTH 480 0
DWIDTH 8 0
BBX 8 8 0 0
BITMAP
7f
47
46
0c
18
31
61
ff
ENDCHAR
STARTCHAR braceleft
ENCODING 123
SWIDTH 340 0
DWIDTH 6 0
BBX 4 14 1 -2
BITMAP
10
20
20
20
20
20
e0
40
20
20
20
20
20
10
ENDCHAR
STARTCHAR bar
ENCODING 124
SWIDTH 228 0
DWIDTH 4 0
BBX 1 12 1 0
BITMAP
80
80
80
80
80
80
80
80
80
80
80
80
ENDCHAR
STARTCHAR braceright
ENCODING 125
SWIDTH 340 0
DWIDTH 6 0
BBX 3 14 1 -2
BITMAP
80
40
40
40
40
40
20
40
40
40
40
40
40
80
ENDCHAR
STARTCHAR asciitilde
ENCODING 126
SWIDTH 570 0
DWIDTH 9 0
BBX 7 2 1 3
BITMAP
72
8c
ENDCHAR
STARTCHAR nobreakspace
ENCODING 160
SWIDTH 225 0
DWIDTH 4 0
BBX 0 0 0 0
BITMAP
ENDCHAR
STARTCHAR Aogonek
ENCODING 161
SWIDTH 635 0
DWIDTH 11 0
BBX 11 16 0 -4
BITMAP
0400
0e00
0e00
0a00
1300
1100
1f00
2180
2180
2080
40c0
f1e0
0400
0800
0800
0e00
ENDCHAR
STARTCHAR breve
ENCODING 162
SWIDTH 400 0
DWIDTH 7 0
BBX 5 3 1 9
BITMAP
88
88
70
ENDCHAR
STARTCHAR Lstroke
ENCODING 163
SWIDTH 574 0
DWIDTH 10 0
BBX 10 12 0 0
BITMAP
7800
3000
3000
3000
3400
3800
7000
b000
3000
3040
3080
7f80
ENDCHAR
STARTCHAR currency
ENCODING 164
SWIDTH 530 0
DWIDTH 9 0
BBX 7 7 1 2
BITMAP
ba
44
82
82
82
44
ba
ENDCHAR
STARTCHAR Lcaron
ENCODING 165
SWIDTH 568 0
DWIDTH 9 0
BBX 9 13 1 0
BITMAP
0600
f200
6200
6400
6000
6000
6000
6000
6000
6000
6080
6100
ff00
ENDCHAR
STARTCHAR Sacute
ENCODING 166
SWIDTH 541 0
DWIDTH 9 0
BBX 8 16 1 0
BITMAP
06
0c
10
00
3c
46
c2
c0
e0
78
1e
03
83
83
c6
3c
ENDCHAR
STARTCHAR section
ENCODING 167
SWIDTH 554 0
DWIDTH 9 0
BBX 8 14 1 -2
BITMAP
3c
46
40
e0
b8
8c
86
41
31
1d
06
04
64
38
ENDCHAR
STARTCHAR diaeresis
ENCODING 168
SWIDTH 400 0
DWIDTH 7 0
BBX 5 2 1 9
BITMAP
d8
d8
ENDCHAR
STARTCHAR Scaron
ENCODING 169
SWIDTH 541 0
DWIDTH 9 0
BBX 8 16 1 0
BITMAP
44
38
10
00
3c
46
c2
c0
e0
78
1e
03
83
83
c6
3c
ENDCHAR
STARTCHAR Scedilla
ENCODING 170
SWIDTH 541 0
DWIDTH 9 0
BBX 8 16 1 -4
BITMAP
3c
46
c2
c0
e0
78
1e
03
83
83
c6
3c
10
30
18
30
ENDCHAR
STARTCHAR Tcaron
ENCODING 171
SWIDTH 621 0
DWIDTH 10 0
BBX 10 16 0 0
BITMAP
2200
1c00
0800
0000
ffc0
8c40
8c40
0c00
0c00
0c00
0c00
0c00
0c00
0c00
0c00
3f00
ENDCHAR
STARTCHAR Zacute
ENCODING 172
SWIDTH 610 0
DWIDTH 10 0
BBX 10 16 0 0
BITMAP
0180
0300
0400
0000
7fc0
41c0
4180
0300
0600
0e00
0c00
1800
3000
3040
6040
ffc0
ENDCHAR
STARTCHAR hyphen
ENCODING 173
SWIDTH 392 0
DWIDTH 7 0
BBX 4 1 1 4
BITMAP
f0
ENDCHAR
STARTCHAR Zcaron
ENCODING 174
SWIDTH 610 0
DWIDTH 10 0
BBX 10 16 0 0
BITMAP
1100
0e00
0400
0000
7fc0
41c0
4180
0300
0600
0e00
0c00
1800
3000
3040
6040
ffc0
ENDCHAR
STARTCHAR Zabovedot
ENCODING 175
SWIDTH 610 0
DWIDTH 10 0
BBX 10 15 0 0
BITMAP
0600
0600
0000
7fc0
41c0
4180
0300
0600
0e00
0c00
1800
3000
3040
6040
ffc0
ENDCHAR
STARTCHAR degree
ENCODING 176
SWIDTH 350 0
DWIDTH 6 0
BBX 4 4 1 7
BITMAP
60
90
90
60
ENDCHAR
STARTCHAR aogonek
ENCODING 177
SWIDTH 523 0
DWIDTH 9 0
BBX 7 12 1 -4
BITMAP
38
cc
8c
3c
cc
cc
cc
7e
10
20
20
38
ENDCHAR
STARTCHAR ogonek
ENCODING 178
SWIDTH 400 0
DWIDTH 7 0
BBX 3 4 2 -4
BITMAP
40
80
80
e0
ENDCHAR
STARTCHAR lstroke
ENCODING 179
SWIDTH 294 0
DWIDTH 5 0
BBX 5 12 -1 0
BITMAP
30
70
30
30
38
30
70
b0
30
30
30
78
ENDCHAR
STARTCHAR acute
ENCODING 180
SWIDTH 400 0
DWIDTH 7 0
BBX 4 3 2 9
BITMAP
30
60
80
ENDCHAR
STARTCHAR lcaron
ENCODING 181
SWIDTH 420 0
DWIDTH 7 0
BBX 6 13 0 0
BITMAP
0c
64
e4
68
60
60
60
60
60
60
60
60
f0
ENDCHAR
STARTCHAR sacute
ENCODING 182
SWIDTH 436 0
DWIDTH 7 0
BBX 6 12 1 0
BITMAP
0c
18
20
00
30
c8
c0
70
18
8c
c8
70
ENDCHAR
STARTCHAR caron
ENCODING 183
SWIDTH 400 0
DWIDTH 7 0
BBX 5 3 1 9
BITMAP
88
70
20
ENDCHAR
STARTCHAR cedilla
ENCODING 184
SWIDTH 400 0
DWIDTH 7 0
BBX 3 4 3 -4
BITMAP
40
c0
60
c0
ENDCHAR
STARTCHAR scaron
ENCODING 185
SWIDTH 436 0
DWIDTH 7 0
BBX 6 12 1 0
BITMAP
88
70
20
00
30
c8
c0
70
18
8c
c8
70
ENDCHAR
STARTCHAR scedilla
ENCODING 186
SWIDTH 436 0
DWIDTH 7 0
BBX 6 12 1 -4
BITMAP
30
c8
c0
70
18
8c
c8
70
20
60
30
60
ENDCHAR
STARTCHAR tcaron
ENCODING 187
SWIDTH 420 0
DWIDTH 7 0
BBX 6 13 0 0
BITMAP
0c
04
04
28
20
f8
60
60
60
60
60
60
38
ENDCHAR
STARTCHAR zacute
ENCODING 188
SWIDTH 480 0
DWIDTH 8 0
BBX 8 12 0 0
BITMAP
03
06
08
00
7f
47
46
0c
18
31
61
ff
ENDCHAR
STARTCHAR doubleacute
ENCODING 189
SWIDTH 400 0
DWIDTH 7 0
BBX 5 3 2 9
BITMAP
58
50
90
ENDCHAR
STARTCHAR zcaron
ENCODING 190
SWIDTH 480 0
DWIDTH 8 0
BBX 8 12 0 0
BITMAP
22
1c
08
00
7f
47
46
0c
18
31
61
ff
ENDCHAR
STARTCHAR zabovedot
ENCODING 191
SWIDTH 480 0
DWIDTH 8 0
BBX 8 11 0 0
BITMAP
0c
0c
00
7f
47
46
0c
18
31
61
ff
ENDCHAR
STARTCHAR Racute
ENCODING 192
SWIDTH 644 0
DWIDTH 11 0
BBX 9 16 1 0
BITMAP
0600
0c00
1000
0000
fc00
6600
6300
6300
6300
6600
7800
6600
6200
6300
6300
f180
ENDCHAR
STARTCHAR Aacute
ENCODING 193
SWIDTH 635 0
DWIDTH 11 0
BBX 11 14 0 0
BITMAP
0f00
0000
0400
0e00
0e00
1200
1300
1300
3f00
2180
2180
4080
40c0
e1e0
ENDCHAR
STARTCHAR Acircumflex
ENCODING 194
SWIDTH 635 0
DWIDTH 11 0
BBX 11 15 0 0
BITMAP
0400
0e00
1100
0400
0e00
0e00
0a00
1300
1100
1f00
2180
2180
2080
40c0
f1e0
ENDCHAR
STARTCHAR Abreve
ENCODING 195
SWIDTH 635 0
DWIDTH 11 0
BBX 11 16 0 0
BITMAP
1100
1100
0e00
0000
0400
0e00
0e00
0a00
1300
1100
1f00
2180
2180
2080
40c0
f1e0
ENDCHAR
STARTCHAR Adiaeresis
ENCODING 196
SWIDTH 635 0
DWIDTH 11 0
BBX 11 14 0 0
BITMAP
1b00
1b00
0000
0600
0e00
0a00
1300
1100
1f00
2180
2180
4080
40c0
f1e0
ENDCHAR
STARTCHAR Lacute
ENCODING 197
SWIDTH 568 0
DWIDTH 9 0
BBX 9 16 1 0
BITMAP
1800
3000
4000
0000
f000
6000
6000
6000
6000
6000
6000
6000
6000
6080
6100
ff00
ENDCHAR
STARTCHAR Cacute
ENCODING 198
SWIDTH 684 0
DWIDTH 11 0
BBX 10 16 1 0
BITMAP
0180
0300
0400
0000
0f80
30c0
6040
4000
c000
c000
c000
c000
c040
6040
30c0
0f00
ENDCHAR
STARTCHAR Ccedilla
ENCODING 199
SWIDTH 680 0
DWIDTH 11 0
BBX 10 16 1 -4
BITMAP
0f00
30c0
6040
4000
c000
c000
c000
c000
c040
6040
30c0
1f00
0800
0c00
0600
0c00
ENDCHAR
STARTCHAR Ccaron
ENCODING 200
SWIDTH 684 0
DWIDTH 11 0
BBX 10 16 1 0
BITMAP
1100
0e00
0400
0000
0f80
30c0
6040
4000
c000
c000
c000
c000
c040
6040
30c0
0f00
ENDCHAR
STARTCHAR Eacute
ENCODING 201
SWIDTH 606 0
DWIDTH 10 0
BBX 9 14 1 0
BITMAP
0600
1800
ff00
6300
6100
6000
6200
6200
7e00
6200
6000
6080
6100
ff00
ENDCHAR
STARTCHAR Eogonek
ENCODING 202
SWIDTH 606 0
DWIDTH 10 0
BBX 9 16 1 -4
BITMAP
ff00
6300
6100
6000
6200
6200
7e00
6200
6000
6080
6100
ff00
0800
1000
1000
1c00
ENDCHAR
STARTCHAR Ediaeresis
ENCODING 203
SWIDTH 606 0
DWIDTH 10 0
BBX 9 14 1 0
BITMAP
6600
6600
ff00
6100
6100
6000
6200
6200
7e00
6200
6000
6080
6100
ff00
ENDCHAR
STARTCHAR Ecaron
ENCODING 204
SWIDTH 606 0
DWIDTH 10 0
BBX 9 16 1 0
BITMAP
4400
3800
1000
0000
ff00
6300
6100
6000
6200
6200
7e00
6200
6000
6080
6100
ff00
ENDCHAR
STARTCHAR Iacute
ENCODING 205
SWIDTH 349 0
DWIDTH 6 0
BBX 5 14 1 0
BITMAP
78
00
f0
60
60
60
60
60
60
60
60
60
60
f0
ENDCHAR
STARTCHAR Icircumflex
ENCODING 206
SWIDTH 349 0
DWIDTH 6 0
BBX 6 15 0 0
BITMAP
10
fc
00
78
30
30
30
30
30
30
30
30
30
30
78
ENDCHAR
STARTCHAR Dcaron
ENCODING 207
SWIDTH 779 0
DWIDTH 13 0
BBX 12 16 0 0
BITMAP
1100
0e00
0400
0000
7f00
30c0
3060
3030
3030
3030
3030
3030
3020
3060
30c0
ff00
ENDCHAR
STARTCHAR Dstroke
ENCODING 208
SWIDTH 785 0
DWIDTH 13 0
BBX 12 12 0 0
BITMAP
7f00
30c0
3060
3070
3030
3030
fc30
3030
3020
3060
30c0
7f00
ENDCHAR
STARTCHAR Nacute
ENCODING 209
SWIDTH 780 0
DWIDTH 13 0
BBX 11 16 1 0
BITMAP
0180
0300
0400
0000
e1e0
7040
7040
5840
4c40
4c40
4640
4340
4340
41c0
40c0
f0c0
ENDCHAR
STARTCHAR Ncaron
ENCODING 210
SWIDTH 780 0
DWIDTH 13 0
BBX 11 16 1 0
BITMAP
1100
0e00
0400
0000
e1e0
7040
7040
5840
4c40
4c40
4640
4340
4340
41c0
40c0
f0c0
ENDCHAR
STARTCHAR Oacute
ENCODING 211
SWIDTH 762 0
DWIDTH 13 0
BBX 11 14 1 0
BITMAP
0300
0c00
0e00
3180
60c0
4040
c060
c060
c060
c060
4040
60c0
3180
0e00
ENDCHAR
STARTCHAR Ocircumflex
ENCODING 212
SWIDTH 762 0
DWIDTH 13 0
BBX 11 15 1 0
BITMAP
0400
1f00
0000
0e00
3180
60c0
4040
c060
c060
c060
c060
4040
60c0
3180
0e00
ENDCHAR
STARTCHAR Odoubleacute
ENCODING 213
SWIDTH 762 0
DWIDTH 13 0
BBX 11 16 1 0
BITMAP
0580
0500
0900
0000
0e00
3180
60c0
4040
c060
c060
c060
c060
4040
60c0
3180
0e00
ENDCHAR
STARTCHAR Odiaeresis
ENCODING 214
SWIDTH 762 0
DWIDTH 13 0
BBX 11 14 1 0
BITMAP
1b00
1100
0400
3b80
60c0
4040
c060
c060
c060
c060
4040
60c0
3180
0e00
ENDCHAR
STARTCHAR multiply
ENCODING 215
SWIDTH 570 0
DWIDTH 9 0
BBX 7 8 1 0
BITMAP
82
44
6c
38
38
6c
44
82
ENDCHAR
STARTCHAR Rcaron
ENCODING 216
SWIDTH 644 0
DWIDTH 11 0
BBX 9 16 1 0
BITMAP
4400
3800
1000
0000
fc00
6600
6300
6300
6300
6600
7800
6600
6200
6300
6300
f180
ENDCHAR
STARTCHAR Uring
ENCODING 217
SWIDTH 791 0
DWIDTH 13 0
BBX 11 17 1 0
BITMAP
0400
0a00
0a00
0400
0000
f1e0
60c0
60c0
60c0
60c0
60c0
60c0
60c0
60c0
2080
3180
0e00
ENDCHAR
STARTCHAR Uacute
ENCODING 218
SWIDTH 791 0
DWIDTH 13 0
BBX 11 14 1 0
BITMAP
0300
0400
f1e0
60c0
60c0
60c0
60c0
60c0
60c0
60c0
60c0
2080
3180
0e00
ENDCHAR
STARTCHAR Udoubleacute
ENCODING 219
SWIDTH 791 0
DWIDTH 13 0
BBX 11 16 1 0
BITMAP
0580
0500
0900
0000
f1e0
60c0
60c0
60c0
60c0
60c0
60c0
60c0
60c0
2080
3180
0e00
ENDCHAR
STARTCHAR Udiaeresis
ENCODING 220
SWIDTH 791 0
DWIDTH 13 0
BBX 11 14 1 0
BITMAP
1b00
0a00
e0e0
60c0
60c0
60c0
60c0
60c0
60c0
60c0
60c0
2080
3180
0e00
ENDCHAR
STARTCHAR Yacute
ENCODING 221
SWIDTH 588 0
DWIDTH 10 0
BBX 10 14 0 0
BITMAP
0300
0400
f1c0
6080
2100
3100
1a00
1a00
0c00
0c00
0c00
0c00
0c00
1f00
ENDCHAR
STARTCHAR Tcedilla
ENCODING 222
SWIDTH 621 0
DWIDTH 10 0
BBX 10 16 0 -4
BITMAP
ffc0
8c40
8c40
0c00
0c00
0c00
0c00
0c00
0c00
0c00
0c00
3f00
0800
1800
0c00
1800
ENDCHAR
STARTCHAR ssharp
ENCODING 223
SWIDTH 601 0
DWIDTH 10 0
BBX 10 12 0 0
BITMAP
1e00
3100
2180
6100
6200
6200
6700
6380
61c0
60c0
6680
f380
ENDCHAR
STARTCHAR racute
ENCODING 224
SWIDTH 389 0
DWIDTH 6 0
BBX 6 12 1 0
BITMAP
0c
18
20
00
6c
fc
60
60
60
60
60
f0
ENDCHAR
STARTCHAR aacute
ENCODING 225
SWIDTH 523 0
DWIDTH 9 0
BBX 7 12 1 0
BITMAP
0c
10
20
00
38
cc
8c
3c
cc
cc
cc
7e
ENDCHAR
STARTCHAR acircumflex
ENCODING 226
SWIDTH 523 0
DWIDTH 9 0
BBX 7 12 1 0
BITMAP
10
30
48
00
38
cc
cc
1c
6c
cc
cc
7e
ENDCHAR
STARTCHAR abreve
ENCODING 227
SWIDTH 523 0
DWIDTH 9 0
BBX 7 12 1 0
BITMAP
88
88
70
00
38
cc
8c
3c
cc
cc
cc
7e
ENDCHAR
STARTCHAR adiaeresis
ENCODING 228
SWIDTH 523 0
DWIDTH 9 0
BBX 7 11 1 0
BITMAP
6c
6c
00
38
cc
8c
3c
cc
cc
cc
7e
ENDCHAR
STARTCHAR lacute
ENCODING 229
SWIDTH 279 0
DWIDTH 5 0
BBX 5 16 0 0
BITMAP
18
30
40
00
60
e0
60
60
60
60
60
60
60
60
60
f0
ENDCHAR
STARTCHAR cacute
ENCODING 230
SWIDTH 496 0
DWIDTH 8 0
BBX 7 12 1 0
BITMAP
06
0c
10
00
3c
66
c2
c0
c0
c0
62
3c
ENDCHAR
STARTCHAR ccedilla
ENCODING 231
SWIDTH 496 0
DWIDTH 8 0
BBX 7 12 1 -4
BITMAP
38
4e
c4
c0
c0
c2
44
38
10
10
18
30
ENDCHAR
STARTCHAR ccaron
ENCODING 232
SWIDTH 496 0
DWIDTH 8 0
BBX 7 12 1 0
BITMAP
44
38
10
00
3c
66
c2
c0
c0
c0
62
3c
ENDCHAR
STARTCHAR eacute
ENCODING 233
SWIDTH 514 0
DWIDTH 9 0
BBX 7 12 1 0
BITMAP
04
0c
10
00
38
44
c6
fe
c0
c2
64
38
ENDCHAR
STARTCHAR eogonek
ENCODING 234
SWIDTH 514 0
DWIDTH 9 0
BBX 7 12 1 -4
BITMAP
38
44
c6
fe
c0
c2
64
38
10
20
20
38
ENDCHAR
STARTCHAR ediaeresis
ENCODING 235
SWIDTH 514 0
DWIDTH 9 0
BBX 7 11 1 0
BITMAP
6c
6c
00
38
44
c6
fe
c0
c2
64
38
ENDCHAR
STARTCHAR ecaron
ENCODING 236
SWIDTH 514 0
DWIDTH 9 0
BBX 7 12 1 0
BITMAP
44
38
10
00
38
44
c6
fe
c0
c2
64
38
ENDCHAR
STARTCHAR iacute
ENCODING 237
SWIDTH 291 0
DWIDTH 5 0
BBX 4 12 1 0
BITMAP
10
30
c0
00
60
e0
60
60
60
60
60
f0
ENDCHAR
STARTCHAR icircumflex
ENCODING 238
SWIDTH 291 0
DWIDTH 5 0
BBX 6 12 0 0
BITMAP
20
30
48
84
30
70
30
30
30
30
30
78
ENDCHAR
STARTCHAR dcaron
ENCODING 239
SWIDTH 720 0
DWIDTH 12 0
BBX 11 13 1 0
BITMAP
0060
0320
0720
0340
0300
1f00
6300
4300
c300
c300
c300
6700
3b80
ENDCHAR
STARTCHAR dstroke
ENCODING 240
SWIDTH 720 0
DWIDTH 12 0
BBX 11 12 1 0
BITMAP
0300
0300
1fe0
0300
1f00
6300
4300
c300
c300
c300
6700
3b80
ENDCHAR
STARTCHAR nacute
ENCODING 241
SWIDTH 619 0
DWIDTH 10 0
BBX 9 12 1 0
BITMAP
0600
0c00
1000
0000
6e00
f300
6300
6300
6300
6300
6300
f780
ENDCHAR
STARTCHAR ncaron
ENCODING 242
SWIDTH 619 0
DWIDTH 10 0
BBX 9 12 1 0
BITMAP
4400
3800
1000
0000
6e00
f300
6300
6300
6300
6300
6300
f780
ENDCHAR
STARTCHAR oacute
ENCODING 243
SWIDTH 577 0
DWIDTH 10 0
BBX 8 12 1 0
BITMAP
04
0c
10
00
3c
66
c3
c3
c3
c3
66
3c
ENDCHAR
STARTCHAR ocircumflex
ENCODING 244
SWIDTH 577 0
DWIDTH 10 0
BBX 8 12 1 0
BITMAP
08
18
24
00
3c
66
c3
c3
c3
c3
66
3c
ENDCHAR
STARTCHAR odoubleacute
ENCODING 245
SWIDTH 577 0
DWIDTH 10 0
BBX 8 12 1 0
BITMAP
16
14
24
00
3c
66
c3
c3
c3
c3
66
3c
ENDCHAR
STARTCHAR odiaeresis
ENCODING 246
SWIDTH 577 0
DWIDTH 10 0
BBX 8 11 1 0
BITMAP
66
66
00
3c
66
c3
c3
c3
c3
66
3c
ENDCHAR
STARTCHAR division
ENCODING 247
SWIDTH 570 0
DWIDTH 9 0
BBX 8 7 1 0
BITMAP
18
18
00
ff
00
18
18
ENDCHAR
STARTCHAR rcaron
ENCODING 248
SWIDTH 389 0
DWIDTH 6 0
BBX 6 12 1 0
BITMAP
88
70
20
00
6c
fc
60
60
60
60
60
f0
ENDCHAR
STARTCHAR uring
ENCODING 249
SWIDTH 606 0
DWIDTH 10 0
BBX 10 13 0 0
BITMAP
0800
1400
1400
0800
0000
6180
e380
6180
6180
6180
6180
6380
3dc0
ENDCHAR
STARTCHAR uacute
ENCODING 250
SWIDTH 606 0
DWIDTH 10 0
BBX 10 13 0 0
BITMAP
0100
0300
0400
0800
0000
6180
e380
6180
6180
6180
6180
6380
3dc0
ENDCHAR
STARTCHAR udoubleacute
ENCODING 251
SWIDTH 606 0
DWIDTH 10 0
BBX 10 12 0 0
BITMAP
0b00
0a00
1200
0000
6180
e380
6180
6180
6180
6180
6380
3dc0
ENDCHAR
STARTCHAR udiaeresis
ENCODING 252
SWIDTH 606 0
DWIDTH 10 0
BBX 10 11 0 0
BITMAP
3300
3300
0000
6180
e380
6180
6180
6180
6180
6380
3dc0
ENDCHAR
STARTCHAR yacute
ENCODING 253
SWIDTH 506 0
DWIDTH 8 0
BBX 9 16 0 -4
BITMAP
0300
0600
0800
0000
f380
6100
2100
3200
3200
1a00
1c00
0c00
0800
0800
5000
7000
ENDCHAR
STARTCHAR tcedilla
ENCODING 254
SWIDTH 344 0
DWIDTH 6 0
BBX 5 14 0 -4
BITMAP
20
20
f8
60
60
60
60
60
60
38
20
60
30
60
ENDCHAR
STARTCHAR abovedot
ENCODING 255
SWIDTH 400 0
DWIDTH 7 0
BBX 2 2 2 9
BITMAP
c0
c0
ENDCHAR
ENDFONT
